<?xml version="1.0" encoding="utf-8"?>
<!-- Generator: Adobe Illustrator 16.0.0, SVG Export Plug-In . SVG Version: 6.00 Build 0)  -->
<!DOCTYPE svg PUBLIC "-//W3C//DTD SVG 1.1//EN" "http://www.w3.org/Graphics/SVG/1.1/DTD/svg11.dtd">
<svg version="1.1" id="Livello_1" xmlns="http://www.w3.org/2000/svg" xmlns:xlink="http://www.w3.org/1999/xlink" x="0px" y="0px"
	 width="445.52px" height="44.818px" viewBox="0 0 445.52 44.818" enable-background="new 0 0 445.52 44.818" xml:space="preserve">
<g>
	<polygon fill="#ffffff" points="0,35.532 8.251,35.532 8.251,9.027 0,9.027 0,1.16 31.66,1.16 31.66,9.027 24.561,9.027 
		24.561,35.532 31.66,35.532 31.66,43.399 0,43.399 0,35.532 	"/>
	<path fill="#ffffff" d="M34.896,35.532h8.25V9.027h-8.25V1.16h31.66v7.867h-7.1v26.505l14.992-0.052
		c5.086,0,9.21-4.553,9.21-10.169v-3.263h8.276v21.351h-57.04V35.532L34.896,35.532z"/>
	<polygon fill="#ffffff" points="176.639,35.532 184.89,35.532 184.89,9.027 176.639,9.027 176.639,1.16 208.299,1.16 
		208.299,9.027 201.199,9.027 201.199,35.532 208.299,35.532 208.299,43.399 176.639,43.399 176.639,35.532 	"/>
	<path fill-rule="evenodd" clip-rule="evenodd" fill="#ffffff" d="M225.334,12.719c0-3.289,5.158-5.315,9.766-5.315
		c4.609,0,9.332,2.026,9.332,5.315v19.599c0,2.855-6.041,5.314-9.332,5.314c-4.607,0-9.766-1.99-9.766-5.314V12.719L225.334,12.719z
		 M208.177,22.518c0-10.964,10.61-22.3,26.923-22.3c16.986,0,26.924,12.282,26.924,22.3c0,11-10.176,22.301-26.924,22.301
		C218.078,44.818,208.177,33.281,208.177,22.518L208.177,22.518z"/>
	<path fill="#ffffff" d="M116.761,22.518C116.761,11.554,127.371,0,143.684,0c6.665,0,14.934,2.068,21.024,5.07V1.166h8.482
		l0.019,12.517h-20.193v-0.964c0-3.289-4.724-5.315-9.332-5.315s-9.767,2.026-9.767,5.315v19.599c0,3.324,5.159,5.314,9.767,5.314
		c3.29,0,9.332-2.459,9.332-5.314l0.217-2.343h-4.585v-7.318l28.572-0.139l-0.014,7.693h-4.943v13.463h-8.264v-3.691
		c-5.883,3.047-13.103,4.836-20.315,4.836C126.662,44.818,116.761,33.281,116.761,22.518L116.761,22.518z"/>
	<path fill="#ffffff" d="M297.275,9.027h-9.877V23.38h9.721c2.904,0,6.578-3.455,6.447-7.555
		C303.451,12.203,300.762,9.509,297.275,9.027L297.275,9.027z M311.652,27.728l5.613,7.805h3.779v7.867h-16.883l-8.26-12.716h-8.504
		v4.849h7.1v7.867h-31.66v-7.867h8.25V9.027h-8.25V1.16l46.164,0.006c7.236,0.099,13.012,5.77,13.24,13.004
		C322.451,20.765,317.898,26.393,311.652,27.728L311.652,27.728z"/>
	<polygon fill="#ffffff" points="324.238,35.532 332.49,35.532 332.49,9.027 324.238,9.027 324.238,1.16 348.096,1.16 
		375.727,25.878 375.727,9.027 367.693,9.027 367.693,1.16 393.072,1.16 393.072,9.027 385.479,9.027 385.479,43.437 371.42,43.399 
		342.025,18.735 342.025,35.532 349.617,35.532 349.617,43.399 324.238,43.399 324.238,35.532 	"/>
	<path fill-rule="evenodd" clip-rule="evenodd" fill="#ffffff" d="M408.828,12.719c0-3.289,5.158-5.315,9.768-5.315
		c4.607,0,9.332,2.026,9.332,5.315v19.599c0,2.855-6.043,5.314-9.332,5.314c-4.609,0-9.768-1.99-9.768-5.314V12.719L408.828,12.719z
		 M391.672,22.518c0-10.964,10.609-22.3,26.924-22.3c16.984,0,26.924,12.282,26.924,22.3c0,11-10.176,22.301-26.924,22.301
		C401.572,44.818,391.672,33.281,391.672,22.518L391.672,22.518z"/>
</g>
</svg>
