<?xml version="1.0" encoding="UTF-8" standalone="no"?>
<svg width="426px" height="90px" viewBox="0 0 426 90" version="1.1" xmlns="http://www.w3.org/2000/svg" xmlns:xlink="http://www.w3.org/1999/xlink" xmlns:sketch="http://www.bohemiancoding.com/sketch/ns">
    <!-- Generator: Sketch 3.3.1 (12005) - http://www.bohemiancoding.com/sketch -->
    <title>Slice 1</title>
    <desc>Created with Sketch.</desc>
    <defs></defs>
    <g id="Page-1" stroke="none" stroke-width="1" fill="none" fill-rule="evenodd" sketch:type="MSPage">
        <g id="inEdicola_logo_white" sketch:type="MSLayerGroup" fill="#FFFFFF">
            <g id="Group" sketch:type="MSShapeGroup">
                <path d="M394.447,34.659 C393.173,31.665 390.432,29.307 386.099,27.65 C382.788,26.122 379.219,25.358 375.334,25.358 C370.235,25.358 365.586,26.632 361.253,29.307 C356.219,32.301 353.797,36.189 353.797,41.03 C353.797,44.662 355.455,46.509 358.832,46.509 C363.101,46.509 365.139,44.343 364.947,40.01 L364.503,35.614 C364.503,33.512 365.52,31.793 367.624,30.582 C369.47,29.627 371.446,29.18 373.549,29.18 C379.921,29.18 383.105,33.194 383.171,41.285 L383.171,49.441 C361.126,52.244 350.167,59.698 350.167,71.675 C350.167,76.772 351.887,80.851 355.455,83.973 C358.576,86.777 362.718,88.177 367.941,88.242 C375.14,88.178 380.81,84.483 384.887,77.092 C385.398,80.98 386.481,83.846 388.202,85.503 C389.985,87.286 392.725,88.178 396.422,88.242 C398.651,88.178 401.327,87.797 404.385,86.903 L404.385,83.4 C402.983,83.909 401.9,84.1 401.136,84.165 C398.97,84.165 397.633,82.89 397.059,80.469 C396.804,79.513 396.678,77.475 396.678,74.289 L396.678,50.461 C396.679,43.579 395.913,38.292 394.447,34.659 L394.447,34.659 L394.447,34.659 Z M383.171,52.944 L383.171,64.797 C383.105,69.893 382.66,73.651 381.705,76.072 C380.238,79.832 377.244,81.743 372.976,81.743 C366.859,81.743 363.801,77.857 363.801,70.02 C363.801,64.605 365.776,60.461 369.725,57.659 C372.338,55.813 376.8,54.282 383.171,52.944 L383.171,52.944 L383.171,52.944 Z" id="Shape"></path>
                <path d="M423.691,2.677 L408.911,2.677 L412.415,59.635 L420.186,59.635 L423.691,2.677 L423.691,2.677 Z" id="Shape"></path>
                <path d="M425.157,79.321 C425.157,76.902 424.265,74.798 422.608,72.886 C420.888,71.166 418.786,70.337 416.237,70.337 C413.882,70.337 411.842,71.231 410.057,73.014 C408.337,74.671 407.508,76.772 407.508,79.321 C407.508,81.871 408.337,84.037 410.057,85.694 C411.842,87.477 413.881,88.369 416.237,88.369 C418.722,88.369 420.825,87.477 422.608,85.694 C424.265,84.037 425.157,81.871 425.157,79.321 L425.157,79.321 L425.157,79.321 Z" id="Shape"></path>
                <path d="M323.471,6.882 C326.784,6.882 328.823,7.39 329.716,8.474 C330.416,9.493 330.799,11.787 330.799,15.355 L330.799,76.966 C330.799,80.341 330.223,82.444 329.014,83.274 C328.059,83.974 325.828,84.293 322.26,84.293 L322.26,87.479 L337.742,86.779 C338.825,86.716 341.436,86.716 345.579,86.905 L353.35,87.479 L353.35,84.293 C349.72,84.293 347.362,83.975 346.47,83.274 C345.134,82.507 344.43,80.408 344.43,76.966 L344.43,0 C334.492,2.611 327.102,3.949 322.259,3.949 L322.259,6.882 L323.471,6.882 L323.471,6.882 Z" id="Shape"></path>
                <path d="M316.463,34.979 C311.62,28.289 305.249,24.912 297.284,24.912 C289.003,24.912 282.377,28.162 277.406,34.788 C272.882,40.905 270.652,48.359 270.652,57.088 C270.652,65.625 272.818,72.888 277.215,78.942 C282.057,85.377 288.491,88.627 296.583,88.627 C304.674,88.627 311.108,85.314 316.016,78.623 C320.539,72.569 322.768,65.308 322.768,56.643 C322.769,48.104 320.668,40.839 316.463,34.979 L316.463,34.979 L316.463,34.979 Z M296.584,85.248 C288.62,85.248 284.605,75.881 284.543,57.087 C284.605,37.973 288.747,28.416 297.029,28.416 C304.929,28.416 308.88,38.036 308.88,57.341 C308.816,75.946 304.739,85.248 296.584,85.248 L296.584,85.248 L296.584,85.248 Z" id="Shape"></path>
                <path d="M250.074,24.911 C241.664,24.911 235.1,28.288 230.323,35.106 C225.99,41.093 223.824,48.484 223.824,57.34 C223.824,66.07 225.927,73.333 230.067,79.068 C234.655,85.439 241.154,88.625 249.502,88.625 C261.988,88.625 269.06,81.615 270.78,67.535 L265.684,67.535 C264.282,78.43 259.566,83.846 251.603,83.846 C242.364,83.846 237.777,74.926 237.777,57.087 C237.777,38.292 242.492,28.86 251.921,28.86 C259.567,28.86 264.409,34.85 266.385,46.892 L269.762,46.892 L269.762,24.084 L267.404,24.084 L263.71,30.71 C260.077,26.822 255.489,24.911 250.074,24.911 L250.074,24.911 L250.074,24.911 Z" id="Shape"></path>
                <path d="M215.669,8.729 C215.669,6.372 214.903,4.269 213.438,2.55 C211.91,0.828 209.999,0 207.639,0 C205.284,0 203.434,0.828 202.034,2.549 C200.505,4.141 199.741,6.115 199.741,8.601 C199.741,11.087 200.505,13.188 202.034,14.78 C203.501,16.563 205.411,17.457 207.767,17.457 C210.126,17.457 212.038,16.629 213.565,14.908 C214.967,13.252 215.669,11.15 215.669,8.729 L215.669,8.729 L215.669,8.729 Z" id="Shape"></path>
                <path d="M192.859,31.41 L194.07,31.41 C197.447,31.41 199.549,31.921 200.313,33.004 C201.14,34.087 201.587,36.444 201.587,39.884 L201.587,76.966 C201.587,80.407 200.95,82.507 199.612,83.274 C199.295,83.527 198.846,83.718 198.338,83.846 L198.338,81.998 C194.388,81.998 191.902,81.615 190.884,80.915 C189.61,79.96 189.036,77.475 189.036,73.525 L189.036,0 C179.033,2.611 171.641,3.949 166.736,3.949 L166.736,6.882 C170.686,6.882 173.171,7.326 174.127,8.154 C175.147,8.984 175.656,11.403 175.656,15.355 L175.656,33.959 C173.234,31.219 171.196,29.308 169.285,28.161 C167.309,27.014 164.634,26.441 161.385,26.441 C153.803,26.441 147.687,29.818 143.226,36.633 C139.341,42.623 137.429,49.695 137.429,57.914 C137.429,66.451 139.467,73.65 143.545,79.448 C148.195,86.138 154.44,89.451 162.277,89.451 C168.647,89.451 173.552,86.265 177.185,79.895 C177.568,82.633 178.012,85.055 178.713,87.093 L179.159,88.876 C183.937,87.349 188.524,86.201 192.857,85.565 L192.857,87.475 L208.339,86.775 C209.422,86.712 212.035,86.712 216.176,86.901 L223.949,87.475 L223.949,84.289 C220.383,84.289 218.15,83.971 217.195,83.27 C215.795,82.378 215.092,80.209 215.092,76.962 L215.092,24.339 C205.025,27.077 197.634,28.416 192.856,28.416 L192.856,31.41 L192.859,31.41 L192.859,31.41 Z M175.657,57.915 C175.657,76.583 171.579,85.948 163.488,85.948 C155.333,85.948 151.255,76.519 151.255,57.659 C151.192,39.31 155.143,30.136 163.042,30.136 C171.451,30.136 175.593,39.375 175.657,57.915 L175.657,57.915 L175.657,57.915 Z" id="Shape"></path>
                <path d="M126.725,10.831 C128.318,12.806 129.847,16.885 131.248,23.128 L134.881,23.128 L131.821,1.783 L74.607,1.783 L74.607,5.924 C78.812,5.924 81.488,6.307 82.634,7.134 C84.1,8.281 84.865,10.83 84.865,14.78 L84.865,74.289 C84.865,78.177 84.1,80.66 82.634,81.743 C81.361,82.571 78.685,83.017 74.607,82.954 L74.607,87.095 L132.459,87.095 L136.218,64.669 L132.651,64.669 C131.695,67.855 130.294,71.295 128.445,74.989 C125.706,80.151 120.927,82.698 114.174,82.762 L106.72,82.762 C103.661,82.698 101.623,82.253 100.667,81.297 C99.647,80.468 99.074,78.557 99.074,75.627 L99.074,45.046 L114.493,45.046 C117.742,45.046 119.907,46.065 120.864,48.039 C121.501,49.25 121.819,51.8 121.819,55.685 L125.897,55.685 L125.897,30.008 L121.819,30.008 C121.819,33.896 121.501,36.381 120.864,37.59 C119.907,39.567 117.742,40.585 114.493,40.585 L99.074,40.585 L99.074,6.307 L115.32,6.307 C120.481,6.307 124.304,7.837 126.725,10.831 L126.725,10.831 L126.725,10.831 Z" id="Shape"></path>
                <path d="M40.14,24.339 C34.979,26.186 29.818,27.397 24.657,28.033 L24.084,29.818 L25.804,29.818 C28.034,29.88 29.244,29.944 29.499,30.007 C30.901,30.326 31.602,31.028 31.602,32.236 L18.731,87.095 L26.377,87.095 L35.807,48.359 C36.827,43.899 38.228,40.522 40.013,38.165 C43.581,33.386 48.041,30.966 53.264,31.03 C58.999,31.03 61.866,33.64 61.93,38.928 C61.866,41.541 61.484,44.471 60.719,47.784 L54.985,70.721 C53.965,75.437 53.456,78.686 53.456,80.469 C53.456,83.018 54.157,84.865 55.686,86.14 C57.087,87.542 58.999,88.243 61.484,88.243 C66.071,88.179 70.149,84.993 73.716,78.622 L71.741,76.967 C68.682,80.853 66.198,82.827 64.414,82.891 C62.375,82.828 61.356,81.553 61.356,78.942 C61.292,77.476 61.738,75.182 62.565,71.933 L68.491,47.596 C69.383,43.836 69.765,40.84 69.765,38.612 C69.765,34.724 68.554,31.603 66.069,29.181 C63.647,26.824 60.462,25.615 56.512,25.676 C50.14,25.614 44.088,28.926 38.354,35.49 L40.14,24.339 L40.14,24.339 Z" id="Shape"></path>
                <path d="M23.638,12.614 C24.911,11.342 25.485,9.684 25.549,7.709 C25.485,4.459 23.892,2.802 20.707,2.802 C18.924,2.802 17.33,3.504 15.929,4.904 C14.591,6.242 13.953,7.9 13.953,9.875 C13.953,11.341 14.399,12.552 15.355,13.507 C16.501,14.399 17.712,14.907 19.05,14.907 C20.898,14.908 22.427,14.144 23.638,12.614 L23.638,12.614 L23.638,12.614 Z" id="Shape"></path>
                <path d="M20.834,24.465 C15.672,25.867 10.065,26.886 4.077,27.461 L3.504,29.308 C8.601,29.308 11.085,30.391 11.15,32.557 L1.657,70.721 C0.573,75.5 0,78.749 0,80.469 C0,83.018 0.7,84.865 2.103,86.14 C3.505,87.542 5.416,88.243 7.773,88.243 C12.296,88.179 16.438,84.993 20.133,78.622 L18.221,76.967 C15.291,80.853 12.869,82.827 10.957,82.891 C8.92,82.826 7.9,81.552 7.9,79.068 L20.834,24.465 L20.834,24.465 Z" id="Shape"></path>
            </g>
        </g>
    </g>
</svg>