<?xml version="1.0" encoding="utf-8"?>
<!-- Generator: Adobe Illustrator 16.0.0, SVG Export Plug-In . SVG Version: 6.00 Build 0)  -->
<!DOCTYPE svg PUBLIC "-//W3C//DTD SVG 1.1//EN" "http://www.w3.org/Graphics/SVG/1.1/DTD/svg11.dtd">
<svg version="1.1" id="Livello_1" xmlns="http://www.w3.org/2000/svg" xmlns:xlink="http://www.w3.org/1999/xlink" x="0px" y="0px"
	 width="443.039px" height="46.815px" viewBox="0 0 443.039 46.815" enable-background="new 0 0 443.039 46.815"
	 xml:space="preserve">
<g>
	<path fill="#ffffff" d="M0,40.671h5.852V8.192H0V2.341h26.626v5.852h-7.315v32.479h8.446c4.04,0,7.315-4.062,7.315-9.07
		l0.039-3.219h5.852v12.289v5.267v0.585H0V40.671L0,40.671z"/>
	<path fill="#ffffff" d="M72.186,26.041L67.298,9.974l-5.246,16.067H72.186L72.186,26.041z M76.547,40.378l-2.938-9.655H60.523
		l-3.152,9.655h7.294v5.852H44.183v-5.852h5.374L62.617,2.11h14.63l11.641,38.268h5.408v5.852H69.932v-5.852H76.547L76.547,40.378z"
		/>
	<path fill="#ffffff" d="M203.232,26.041l-4.888-16.067l-5.246,16.067H203.232L203.232,26.041z M207.594,40.378l-2.938-9.655H191.57
		l-3.152,9.655h7.294v5.852h-20.482v-5.852h5.374L193.664,2.11h14.63l11.641,38.268h5.408v5.852h-24.364v-5.852H207.594
		L207.594,40.378z"/>
	<polygon fill="#ffffff" points="140.88,40.378 147.179,40.378 147.179,46.229 126.697,46.229 126.697,40.378 133.397,40.378 
		133.559,7.022 126.697,7.022 126.697,1.17 148.174,1.17 164.413,31.601 164.575,7.022 157.712,7.022 157.712,1.17 178.195,1.17 
		178.195,7.022 171.878,7.022 172.05,46.229 157.712,46.229 140.865,13.513 140.88,40.378 	"/>
	<polygon fill="#ffffff" points="289.39,40.378 296.074,40.378 296.074,46.229 269.74,46.229 269.74,40.378 277.479,40.378 
		277.641,7.022 269.74,7.022 269.74,1.17 297.069,1.17 297.245,7.022 289.375,6.983 289.39,40.378 	"/>
	<path fill="#ffffff" d="M227.234,18.434l0.078-17.263h39.912l0.175,5.852l-26.349,33.355h13.182c3.717,0,6.729-4.847,6.729-10.826
		v-2.048h5.853v12.874l0.078,5.852h-39.58l-0.078-9.07l24.657-30.137h-9.363c-4.636,0-8.508,3.86-9.441,9.009v2.402h-0.215H227.234
		L227.234,18.434z"/>
	<polygon fill="#ffffff" points="358.245,40.378 364.544,40.378 364.544,46.229 344.062,46.229 344.062,40.378 350.762,40.378 
		350.924,7.022 344.062,7.022 344.062,1.17 365.539,1.17 381.777,31.601 381.939,7.022 375.077,7.022 375.077,1.17 395.56,1.17 
		395.56,7.022 389.242,7.022 389.415,46.229 375.077,46.229 358.229,13.513 358.245,40.378 	"/>
	<path fill="#ffffff" d="M437.109,31.015l0.078-2.692h5.852v17.322l-0.078,0.585h-43.598v-5.852h7.738l0.162-33.355h-7.9V1.17
		h37.824l5.852-0.06v17.323h-5.852l-0.078-3.219c0-3.944-2.414-7.261-5.684-8.211l-12.428-0.021l0.006,13.284l4.938-0.078
		c1.293,0,2.341-2.882,2.341-6.437h5.853v18.726h-5.853v-0.292c0-2.798-0.974-5.179-2.333-6.066h-4.943l0.007,14.259h10.781
		C433.834,40.378,437.109,36.186,437.109,31.015L437.109,31.015z"/>
	<path fill-rule="evenodd" clip-rule="evenodd" fill="#ffffff" d="M296.952,23.408C296.952,4.974,307.433,0,320.36,0
		c12.929,0,23.408,5.559,23.408,23.408c0,18.433-10.479,23.407-23.408,23.407C307.433,46.815,296.952,41.256,296.952,23.408
		L296.952,23.408z M310.997,23.262c0-13.606,4.127-16.61,9.217-16.61c5.091,0,9.218,3.004,9.218,16.61
		c0,14.483-4.127,16.609-9.218,16.609C315.124,39.871,310.997,37.159,310.997,23.262L310.997,23.262z"/>
</g>
</svg>
