<?xml version="1.0" encoding="UTF-8" standalone="no"?>
<svg viewBox="0 0 308 126" version="1.1" xmlns="http://www.w3.org/2000/svg" xmlns:xlink="http://www.w3.org/1999/xlink" xmlns:sketch="http://www.bohemiancoding.com/sketch/ns">
    <!-- Generator: Sketch 3.2 (9961) - http://www.bohemiancoding.com/sketch -->
    <title>qn_white</title>
    <desc>Created with Sketch.</desc>
    <defs></defs>
    <g id="Page-1" stroke="none" stroke-width="1" fill="none" fill-rule="evenodd" sketch:type="MSPage">
        <g id="qn_white" sketch:type="MSLayerGroup" fill="#FFFFFF">
            <path d="M306.2,1.4 L256.4,1.4 C255.7,1.4 255.2,1.9 255.1,2.5 C255.1,2.5 248.9,45.4 247.8,52.8 C244.6,45.9 224.5,2.2 224.5,2.2 C224.3,1.7 223.8,1.4 223.3,1.4 L152.5,1.4 C151.8,1.4 151.3,1.9 151.2,2.5 L149.1,19 C149.6,19.6 150.1,20.3 150.5,21 C155,27.6 157.3,35.5 157.3,44.6 L157.3,45.5 C157.2,53.8 156.1,61.1 154.1,67.1 C152.5,72 150.7,74.9 149.6,76.6 L149.1,77.5 C146.4,81.5 143.1,85 140.1,87.8 L138.1,102.8 C144.4,106.3 152.3,110.7 154.5,111.9 C154.4,112 154.2,112 154,112.1 L188.7,112.1 C189.4,112.1 189.9,111.6 190,110.9 C190,110.9 194.6,62.6 195.5,53.8 C198.9,62.1 219.4,111.4 219.4,111.4 C219.6,111.9 220.1,112.2 220.6,112.2 L291,112.2 C291.7,112.2 292.2,111.7 292.3,111.1 L307.5,3 C307.5,2.5 307.4,2.2 307.2,1.9 C307,1.6 306.6,1.4 306.2,1.4 Z" id="Shape" sketch:type="MSShapeGroup"></path>
            <path d="M135.3,9.9 C131.9,8 126,5.3 117.1,3.1 C108.7,1.1 99.4,0 89.7,0 L88.1,0 C85.1,0.1 82.7,0.2 80.8,0.3 C73.2,0.6 72.6,0.6 58.4,2.8 C49.6,4.2 41.5,6.5 34.3,9.7 C27,12.9 20.9,16.9 16.3,21.6 C12.2,25.7 8.7,31.5 5.8,38.9 C3.8,44.1 2.1,50 0.8,56.4 C0.7,56.9 0.5,58.6 0.5,61.1 C0.5,63.8 0.7,68 1.8,72.4 C2.9,77 4.7,80.8 7.2,83.7 C11.1,88.3 15.1,92.7 21.2,96.3 C27.9,100.3 36.6,103.3 48.8,105.6 C52.9,106.4 59,106.8 66.5,106.8 C79.8,106.8 89.9,105.5 91,105.1 C91.9,104.7 93,104.8 93.8,105.4 C93.8,105.4 116.1,122 120.5,125.2 C124.6,123.3 143.2,114.8 150.6,111.4 C143.8,107.6 128,98.9 128,98.9 C127.1,98.4 126.6,97.5 126.6,96.5 C126.6,95.5 127.1,94.6 128,94.1 C128.3,93.9 131.2,92.3 134.8,89.4 C138.3,86.6 143.3,82.1 147.1,76.3 L147.6,75.5 C148.6,73.8 150.4,71 151.9,66.3 C153.8,60.4 154.9,53.3 155,45.1 L155,44.2 C154.9,35.7 152.7,28.1 148.4,21.7 C145.2,17 140.8,13 135.3,9.9 Z M103.9,59.2 C103.1,63.9 101.9,67.9 100.4,71.1 C97.6,77.1 94.5,81.5 91.2,84 C90,84.9 87.8,86.6 84.7,88 C81.1,89.7 77.4,90.5 73.7,90.5 C72.9,90.5 72.1,90.5 71.3,90.4 C66.2,90.2 61.5,88.1 57.7,84.3 L57.5,84.1 C56.6,83.2 54.8,81.5 53.2,78.3 C51.2,74.4 50.2,69.6 50.2,64.2 C50.2,62.5 50.3,60.6 50.5,58.7 C51.4,50.1 53.7,43.3 55.4,39.1 C57.5,33.9 60,29.7 62.2,27.4 L62.4,27.2 C66.3,23.3 68.7,20.9 74.2,18.8 L74.3,18.8 C74.5,18.7 78.7,17.4 83.5,17.4 C85.8,17.4 87.9,17.7 89.7,18.3 C93.2,19.5 96.4,21.7 99,24.7 C101.7,27.8 103.5,31.7 104.2,35.9 C104.7,38.9 105,42.7 105,46.7 C104.9,50.8 104.5,55.2 103.9,59.2 L103.9,59.2 Z" id="Shape" sketch:type="MSShapeGroup"></path>
        </g>
    </g>
</svg>
