<?xml version="1.0" encoding="utf-8"?>
<!-- Generator: Adobe Illustrator 16.0.0, SVG Export Plug-In . SVG Version: 6.00 Build 0)  -->
<!DOCTYPE svg PUBLIC "-//W3C//DTD SVG 1.1//EN" "http://www.w3.org/Graphics/SVG/1.1/DTD/svg11.dtd">
<svg version="1.1" id="Livello_1" xmlns="http://www.w3.org/2000/svg" xmlns:xlink="http://www.w3.org/1999/xlink" x="0px" y="0px"
	 width="444.246px" height="49.184px" viewBox="0 0 444.246 49.184" enable-background="new 0 0 444.246 49.184"
	 xml:space="preserve">
<g>
	<polygon fill="#ffffff" points="233.571,15.902 240.099,15.902 240.099,49.184 233.571,49.184 233.571,15.902 	"/>
	<path fill-rule="evenodd" clip-rule="evenodd" fill="#ffffff" d="M224.144,34.645c-0.87-1.709-2.539-2.85-4.497-2.85
		c-1.905,0-3.58,1.131-4.47,2.785L224.144,34.645L224.144,34.645z M214.735,38.916c0.66,2.215,2.619,3.854,4.912,3.854
		c1.741,0,3.263-0.855,4.207-2.281l6.164,2.068c-2.03,3.848-5.946,6.627-10.588,6.627c-6.527,0-11.821-5.416-11.821-11.973
		s5.294-11.902,11.821-11.902c6.455,0,11.822,5.346,11.822,11.902c0,0.355-0.146,1.211-0.218,1.639L214.735,38.916L214.735,38.916z"
		/>
	<path fill="#ffffff" d="M193.539,31.938c-2.756,0-5.077,2.422-5.077,5.273s2.321,5.203,5.077,5.203s5.077-2.352,5.077-5.203
		S196.294,31.938,193.539,31.938L193.539,31.938z M198.905,15.831h6.527v33.353h-6.527v-1.32c-1.611,0.844-3.438,1.32-5.367,1.32
		c-6.455,0-11.749-5.346-11.749-11.83s5.294-11.902,11.749-11.902c1.929-0.07,3.755,0.42,5.367,1.281V15.831L198.905,15.831z"/>
	<path fill="#ffffff" d="M0,17.025c0-2.303,1.9-4.17,4.244-4.17c2.343,0,4.243,1.867,4.243,4.17s-1.9,4.169-4.243,4.169
		C1.9,21.194,0,19.328,0,17.025L0,17.025z"/>
	<polygon fill="#ffffff" points="1.053,25.848 7.829,25.848 7.829,49.184 1.053,49.184 1.053,25.848 	"/>
	<polygon fill="#ffffff" points="11.71,14.407 18.092,14.407 18.092,49.184 11.71,49.184 11.71,14.407 	"/>
	<path fill="#ffffff" d="M293.378,5.455l-4.835,9.327l0,0c-2.597-2.728-6.357-4.487-10.476-4.487
		c-7.969,0-14.505,6.511-14.505,14.342c0,7.83,6.536,14.342,14.505,14.342c3.85,0,7.342-1.496,9.938-3.961l5.729,8.623
		c-4.208,3.607-9.58,5.543-15.668,5.543c-13.789,0-25.07-10.998-25.07-24.459c0-13.462,11.281-24.46,25.07-24.46
		c5.372,0,10.296,1.672,14.415,4.487L293.378,5.455L293.378,5.455z"/>
	<polygon fill="#ffffff" points="353.636,1.848 362.32,1.848 362.32,49.184 353.636,49.184 353.636,1.848 	"/>
	<path fill="#ffffff" d="M366.528,5.675c0-3.134,2.586-5.675,5.775-5.675s5.775,2.542,5.775,5.675c0,3.134-2.586,5.675-5.775,5.675
		S366.528,8.81,366.528,5.675L366.528,5.675z"/>
	<polygon fill="#ffffff" points="367.514,17.421 376.735,17.421 376.735,49.184 367.514,49.184 367.514,17.421 	"/>
	<path fill="#ffffff" d="M427.771,16.013c9.043-0.088,16.475,7.567,16.475,16.629s-7.432,16.541-16.475,16.541
		s-16.385-7.479-16.385-16.541S418.729,16.013,427.771,16.013L427.771,16.013z M427.771,25.164c-3.851,0-7.073,3.344-7.073,7.303
		s3.223,7.303,7.073,7.303c3.85,0,7.073-3.344,7.073-7.303S431.621,25.164,427.771,25.164L427.771,25.164z"/>
	<path fill="#ffffff" d="M330.625,17.333h9.401v2.834c0.825-0.717,1.594-1.28,2.596-1.691c1.164-0.528,2.239-0.88,3.492-1.056
		c0.537,0,1.164-0.176,1.791-0.176h2.865v8.974c-0.09,0-3.224-0.879-6.178,0.705c-0.896,0.439-2.508,1.76-3.402,3.08
		c-0.54,0.795-0.775,1.641-1.164,2.461v16.719h-9.401V17.333L330.625,17.333z"/>
	<path fill="#ffffff" d="M382.377,17.421h9.849v2.366c1.254-1.046,2.328-1.75,3.85-2.102c1.701-0.44,3.851-0.264,4.746-0.176
		c1.521,0.264,2.507,1.056,3.671,1.848c0.716,0.44,1.253,0.968,1.79,1.584c0.717,0.879,1.344,1.583,1.791,2.639
		c0.537,1.32,0.807,2.463,0.807,3.959v21.645h-9.671V31.498c0.09-0.967,0-1.76-0.447-2.551c-0.627-1.057-1.611-1.76-2.865-1.848
		c-0.717,0-1.343,0.088-1.88,0.264c-0.962,0.42-1.35,1.059-1.791,1.543v20.277h-9.849V17.421L382.377,17.421z"/>
	<path fill="#ffffff" d="M308.688,25.164c-3.851,0-7.073,3.344-7.073,7.303s3.223,7.303,7.073,7.303c3.85,0,7.073-3.344,7.073-7.303
		S312.538,25.164,308.688,25.164L308.688,25.164z M317.642,17.333h8.596v31.85h-8.596v-2.688c-2.584,1.697-5.662,2.688-8.953,2.688
		c-9.043,0-16.385-7.479-16.385-16.541s7.342-16.629,16.385-16.629c3.291-0.088,6.369,0.926,8.953,2.654V17.333L317.642,17.333z"/>
	<path fill="#ffffff" d="M113.328,25.943l3.582-6.16l-5.193-3.079c0,0-3.134-1.232-5.104-1.32c-1.88-0.088-3.223-0.088-4.924,0.44
		c-1.164,0.352-2.06,0.968-2.955,1.583c-0.985,0.704-1.791,1.672-2.417,2.816c-0.716,1.408-1.164,2.551-1.164,4.224
		c0,1.584,0.269,2.727,0.896,4.135c0.626,1.408,1.343,2.375,2.507,3.344c1.253,1.055,2.597,1.496,4.119,2.023
		c1.253,0.439,2.238,0.615,3.492,1.057c0.896,0.264,1.612,0.615,2.418,1.055c0.537,0.264,1.343,0.705,1.611,1.32
		c0.179,0.527,0.358,1.232,0.179,1.76c-0.269,0.703-1.253,0.967-1.97,1.143c-1.164,0.266-2.239-0.088-3.402-0.264
		c-2.06-0.264-3.402-0.967-5.373-1.76c-0.806-0.264-1.522-0.703-2.238-1.055l-3.76,6.773c0.716,0.617,1.343,1.232,2.238,1.76
		c1.343,0.793,2.507,1.232,4.029,1.76c1.97,0.705,3.313,1.408,5.372,1.584c2.149,0.176,3.671,0.176,5.82-0.439
		c1.701-0.439,2.865-1.057,4.208-2.023c1.433-1.057,2.417-2.023,3.134-3.695c0.538-1.32,0.716-2.463,0.716-3.959
		c0-2.023-0.089-3.432-1.164-5.104c-0.537-0.969-1.432-1.672-2.417-2.375c-1.253-0.881-2.417-1.496-3.85-2.023
		c-0.985-0.354-1.791-0.705-2.865-1.057c-0.985-0.264-1.791-0.439-2.687-0.881c-0.537-0.264-1.433-0.703-1.611-1.318
		c-0.269-0.705-0.179-1.584,0.269-2.2c0.269-0.44,0.985-0.792,1.522-0.88c1.075-0.264,2.06,0.176,3.134,0.44
		C111.09,24.007,113.328,25.943,113.328,25.943L113.328,25.943z"/>
	<path fill="#ffffff" d="M153.888,16c9.043-0.088,16.475,7.566,16.475,16.628c0,9.063-7.432,16.541-16.475,16.541
		c-9.043,0-16.385-7.479-16.385-16.541C137.503,23.567,144.845,16,153.888,16L153.888,16z M153.888,25.15
		c-3.85,0-7.074,3.344-7.074,7.303s3.224,7.303,7.074,7.303s7.073-3.344,7.073-7.303S157.738,25.15,153.888,25.15L153.888,25.15z"/>
	<polygon fill="#ffffff" points="132.758,8.698 132.757,15.296 137.682,15.296 137.682,23.215 132.757,23.215 132.758,49.17 
		124.073,49.17 124.073,23.215 118.432,23.215 118.432,15.296 124.073,15.296 124.073,13.361 132.758,8.698 	"/>
	<path fill="#ffffff" d="M40.356,11.337v13.198h6.715c0,0,1.522-0.88,2.239-1.496c0.895-0.792,1.522-1.496,1.97-2.64
		c0.448-1.32,0.448-2.551,0.269-3.959c-0.179-1.144-0.448-2.112-1.164-3.08c-0.716-0.968-1.612-1.408-2.775-1.76
		c-0.716-0.176-1.433-0.264-2.239-0.264H40.356L40.356,11.337z M30.507,1.835h7.342h2.507h7.163c1.88-0.264,6.536,1.671,9.312,4.223
		c2.059,1.936,3.134,3.52,4.029,6.159c0.806,2.376,0.985,4.048,0.896,6.599c-0.089,2.815-0.537,4.751-1.791,7.215
		c-1.522,2.902-2.418,4.047-5.999,6.246c-2.686,1.584-0.358,0.352-0.358,0.352l11.55,16.541h-11.64l-9.401-14.342h-3.76V49.17
		h-9.849V1.835L30.507,1.835z"/>
	<path fill-rule="evenodd" clip-rule="evenodd" fill="#ffffff" d="M83.781,29.463c-1.253-2.289-3.582-3.873-6.268-3.873
		c-2.677,0-5.024,1.586-6.253,3.873H83.781L83.781,29.463z M70.676,35.27c0.913,3.016,3.639,5.279,6.837,5.279
		c2.417,0,4.477-1.232,5.82-3.08l8.596,2.727c-2.776,5.279-8.327,8.975-14.774,8.975c-9.043,0-16.474-7.303-16.474-16.189
		c0-8.886,7.431-16.188,16.474-16.188c9.043,0,16.475,7.302,16.475,16.188c0,0.529,0.089,1.76,0,2.289H70.676L70.676,35.27z"/>
</g>
</svg>
